#!OML:ASF F:\VICON\USERDATA\INSTALL\rory3\rory3.ASF
:FULLY-SPECIFIED
:DEGREES
316
root -5.3037 17.7344 9.09682 -1.60093 -49.5467 -0.390409
lowerback 8.27757 2.51518 1.48365
upperback 0.13078 3.47622 -0.154707
thorax -4.40374 1.68507 -1.40452
lowerneck -19.5929 -4.67414 -10.0598
upperneck 25.8016 -5.75538 7.6174
head 12.3098 -2.63969 3.63143
rclavicle -1.79527e-014 1.98785e-015
rhumerus -31.7314 -12.5926 -78.4446
rradius 35.1946
rwrist 7.99528
rhand -11.7809 9.89822
rfingers 7.12502
rthumb 14.2681 -19.5916
lclavicle -1.79527e-014 1.98785e-015
lhumerus -36.7455 2.91075 83.273
lradius 30.8211
lwrist -10.2456
lhand -13.9602 26.0806
lfingers 7.12502
lthumb 12.1675 55.7068
rfemur 11.7651 2.12881 24.6783
rtibia 34.3148
rfoot -2.94254 3.94668
rtoes -0.116193
lfemur -16.3084 -0.953461 -21.2593
ltibia 13.4442
lfoot 0.32361 -6.43945
ltoes -9.31424
317
root -5.41831 17.7502 9.22389 -1.78241 -49.3248 -0.380059
lowerback 8.29248 2.45476 1.60734
upperback 0.228587 3.4036 -0.207858
thorax -4.3021 1.64775 -1.51777
lowerneck -19.6206 -4.69128 -10.0686
upperneck 25.7283 -5.80754 7.74621
head 12.2968 -2.64576 3.67204
rclavicle 1.12232e-014 8.36138e-015
rhumerus -32.127 -12.6335 -78.54
rradius 35.314
rwrist 7.65396
rhand -11.8169 9.43796
rfingers 7.12502
rthumb 14.2335 -20.0543
lclavicle 1.12232e-014 8.36138e-015
lhumerus -36.6524 3.0476 83.1026
lradius 30.6634
lwrist -10.4115
lhand -13.4109 26.394
lfingers 7.12502
lthumb 12.6971 55.988
rfemur 10.8676 1.44229 24.2811
rtibia 36.6758
rfoot -0.322078 4.448
rtoes 0.770373
lfemur -15.5921 -1.07695 -21.2914
ltibia 13.5303
lfoot 0.581059 -5.9455
ltoes -10.5853
318
root -5.52802 17.7637 9.35364 -2.11772 -49.1207 -0.216934
lowerback 8.39567 2.39147 1.72952
upperback 0.29406 3.32713 -0.303636
thorax -4.28174 1.60695 -1.67947
lowerneck -19.6647 -4.72404 -10.1344
upperneck 25.7738 -5.8793 7.90169
head 12.3394 -2.66409 3.73216
rclavicle -7.23306e-014 1.12065e-014
rhumerus -32.4995 -12.8123 -78.5606
rradius 35.2039
rwrist 7.63026
rhand -11.6224 9.41816
rfingers 7.12502
rthumb 14.4209 -20.0608
lclavicle -7.23306e-014 1.12065e-014
lhumerus -36.5776 3.17162 82.9245
lradius 30.4797
lwrist -10.5626
lhand -13.0226 26.551
lfingers 7.12502
lthumb 13.0714 56.1214
rfemur 9.87848 0.721273 23.7358
rtibia 39.1005
rfoot 2.16989 4.97301
rtoes -0.639566
lfemur -14.8691 -0.540979 -21.576
ltibia 13.5892
lfoot 0.525179 -6.30647
ltoes -14.1768
319
root -5.63848 17.7776 9.48043 -2.5273 -49.0612 0.0366995
lowerback 8.55878 2.38688 1.58524
upperback 0.332239 3.31017 -0.274075
thorax -4.34391 1.60067 -1.57333
lowerneck -19.7618 -4.73208 -10.1566
upperneck 25.8977 -5.84545 7.78252
head 12.4013 -2.66536 3.69776
rclavicle -1.72438e-014 7.65321e-015
rhumerus -32.8443 -12.9976 -78.3567
rradius 35.0011
rwrist 7.87062
rhand -11.3076 9.51235
rfingers 7.12502
rthumb 14.7242 -19.9447
lclavicle -1.72438e-014 7.65321e-015
lhumerus -36.6415 3.2776 82.9638
lradius 30.3799
lwrist -10.7559
lhand -13.0163 26.4049
lfingers 7.12502
lthumb 13.0775 55.9749
rfemur 8.8153 0.194621 23.1711
rtibia 41.6355
rfoot 4.41145 5.34958
rtoes -1.14642
lfemur -14.0353 0.278423 -21.9623
ltibia 13.4735
lfoot 0.397346 -7.29843
ltoes -14.3908
320
root -5.75067 17.7929 9.6066 -3.08658 -49.1116 0.494639
lowerback 8.74893 2.46969 1.18093
upperback 0.35736 3.38618 -0.191491
thorax -4.44992 1.64558 -1.27997
lowerneck -19.8018 -4.75681 -10.211
upperneck 25.9739 -5.78912 7.5423
head 12.4276 -2.67601 3.62463
rclavicle 2.16427e-014 6.16232e-015
rhumerus -33.2893 -12.9526 -78.0713
rradius 35.0188
rwrist 7.81255
rhand -11.2182 9.42132
rfingers 7.12502
rthumb 14.8102 -20.0294
lclavicle 2.16427e-014 6.16232e-015
lhumerus -36.8037 3.39809 83.1898
lradius 30.4196
lwrist -10.8883
lhand -12.9348 26.5479
lfingers 7.12502
lthumb 13.156 56.1128
rfemur 7.66773 -0.168294 22.4931
rtibia 44.2848
rfoot 6.67126 5.56741
rtoes 1.1059
lfemur -13.0431 1.30106 -22.4797
ltibia 13.0816
lfoot 0.675588 -8.935
ltoes -8.54154
321
root -5.86191 17.8094 9.72904 -3.8326 -49.1258 1.21179
lowerback 8.91179 2.48942 0.75762
upperback 0.402567 3.36494 -0.304498
thorax -4.51208 1.64171 -1.16486
lowerneck -19.7738 -4.72411 -10.0987
upperneck 25.8991 -5.71722 7.34751
head 12.3738 -2.65727 3.54061
rclavicle 6.74781e-014 -7.85199e-015
rhumerus -33.5635 -13.0904 -78.0568
rradius 34.8683
rwrist 7.87768
rhand -11.1351 9.2794
rfingers 7.12502
rthumb 14.8903 -20.1655
lclavicle 6.74781e-014 -7.85199e-015
lhumerus -36.8499 3.23668 83.2494
lradius 30.4383
lwrist -10.631
lhand -12.5298 26.6204
lfingers 7.12502
lthumb 13.5464 56.1598
rfemur 6.42867 -0.44052 21.654
rtibia 47.0221
rfoot 9.02913 5.58003
rtoes 5.47821
lfemur -11.8981 1.9528 -23.1344
ltibia 12.402
lfoot 1.07672 -10.2275
ltoes -4.21354
322
root -5.97051 17.8269 9.84772 -4.61283 -49.1408 2.08798
lowerback 8.91284 2.45725 0.390053
upperback 0.525222 3.2698 -0.587899
thorax -4.39082 1.60031 -1.23737
lowerneck -19.8075 -4.6703 -9.99953
upperneck 25.6866 -5.67668 7.4251
head 12.2909 -2.61582 3.55582
rclavicle -4.35944e-014 8.00108e-015
rhumerus -33.5923 -13.1904 -78.3553
rradius 34.6158
rwrist 7.89455
rhand -10.8184 9.14556
rfingers 7.12502
rthumb 15.1955 -20.2765
lclavicle -4.35944e-014 8.00108e-015
lhumerus -36.6664 2.71686 83.1978
lradius 30.4532
lwrist -10.1801
lhand -12.3847 26.5623
lfingers 7.12502
lthumb 13.6862 56.0923
rfemur 5.0528 -0.54381 20.7288
rtibia 49.8138
rfoot 11.2543 5.33428
rtoes 10.0663
lfemur -10.7576 2.00546 -23.852
ltibia 11.5693
lfoot 1.10982 -10.5034
ltoes -4.8589
323
root -6.07697 17.8467 9.96085 -5.31199 -49.1429 2.92651
lowerback 8.93048 2.44526 -0.0366498
upperback 0.609919 3.19962 -0.801053
thorax -4.32512 1.57194 -1.20918
lowerneck -19.856 -4.63348 -10.125
upperneck 25.6337 -5.6536 7.69412
head 12.2904 -2.582 3.68398
rclavicle -1.45144e-014 3.97569e-015
rhumerus -33.6688 -12.9844 -78.6035
rradius 34.4667
rwrist 7.8452
rhand -10.4952 9.3053
rfingers 7.12502
rthumb 15.5067 -20.0929
lclavicle -1.45144e-014 3.97569e-015
lhumerus -36.5696 2.34416 83.2045
lradius 30.5439
lwrist -10.0241
lhand -12.5175 26.2486
lfingers 7.12502
lthumb 13.5583 55.7872
rfemur 3.50282 -0.620566 19.8804
rtibia 52.5886
rfoot 13.3505 5.08395
rtoes 11.7889
lfemur -9.65448 1.82807 -24.5019
ltibia 10.6539
lfoot 1.08565 -10.2312
ltoes -6.06545
324
root -6.18197 17.8565 10.0715 -6.08924 -49.1807 3.82692
lowerback 9.09349 2.46957 -0.636531
upperback 0.615579 3.16161 -0.940809
thorax -4.43578 1.56188 -1.02191
lowerneck -19.8663 -4.58322 -10.0944
upperneck 25.6639 -5.59048 7.68582
head 12.2959 -2.55224 3.6871
rclavicle 1.52431e-013 -9.24349e-015
rhumerus -33.7972 -12.6846 -78.7775
rradius 34.2619
rwrist 7.87352
rhand -10.4896 9.46079
rfingers 7.12502
rthumb 15.5121 -19.937
lclavicle 1.52431e-013 -9.24349e-015
lhumerus -36.617 2.02024 83.3071
lradius 30.6238
lwrist -9.95107
lhand -12.6979 26.0556
lfingers 7.12502
lthumb 13.3844 55.6057
rfemur 1.941 -0.5773 19.041
rtibia 55.278
rfoot 15.3356 4.85644
rtoes 12.4869
lfemur -8.50877 1.86393 -25.2297
ltibia 9.6759
lfoot 1.29565 -10.1235
ltoes -5.11897
325
root -6.28762 17.863 10.1853 -6.93841 -49.265 4.81295
lowerback 9.18763 2.48983 -1.33697
upperback 0.660202 3.10927 -1.0295
thorax -4.47511 1.54761 -0.719051
lowerneck -19.85 -4.52766 -10.1111
upperneck 25.5828 -5.46641 7.57556
head 12.2442 -2.51191 3.66652
rclavicle -5.75792e-014 8.94531e-016
rhumerus -33.7834 -12.3272 -78.8938
rradius 33.933
rwrist 7.97874
rhand -10.4687 9.35526
rfingers 7.12502
rthumb 15.5323 -20.0409
lclavicle -5.75792e-014 8.94531e-016
lhumerus -36.5623 1.89038 83.4362
lradius 30.647
lwrist -9.86937
lhand -12.8026 26.0611
lfingers 7.12502
lthumb 13.2834 55.6178
rfemur 0.415634 -0.494848 18.1615
rtibia 57.821
rfoot 16.9775 4.64554
rtoes 13.4308
lfemur -7.42928 1.96461 -26.0275
ltibia 8.87446
lfoot 1.54559 -10.2263
ltoes -4.35398
326
root -6.39195 17.8777 10.3049 -7.79752 -49.3012 5.71539
lowerback 9.33598 2.50476 -1.87873
upperback 0.692819 3.06305 -1.12343
thorax -4.5476 1.53331 -0.513969
lowerneck -19.7329 -4.47635 -10.0895
upperneck 25.5414 -5.35822 7.40423
head 12.1866 -2.4856 3.61464
rclavicle 6.81272e-014 -7.7526e-015
rhumerus -33.8331 -12.0619 -78.9685
rradius 33.6169
rwrist 8.1326
rhand -10.3043 9.1318
rfingers 7.12502
rthumb 15.6906 -20.252
lclavicle 6.81272e-014 -7.7526e-015
lhumerus -36.5146 1.73483 83.5548
lradius 30.6231
lwrist -9.68458
lhand -12.6564 25.9019
lfingers 7.12502
lthumb 13.4244 55.4493
rfemur -0.957015 -0.649801 17.2383
rtibia 60.1376
rfoot 17.9457 4.36895
rtoes 14.4577
lfemur -6.33404 2.02974 -26.7827
ltibia 8.26528
lfoot 1.66128 -10.3797
ltoes -3.57036
